<?xml version="1.0" encoding="UTF-8"?>
<svg id="Layer_1" data-name="Layer 1" xmlns="http://www.w3.org/2000/svg" viewBox="0 0 16.09 16.09">
  <defs>
    <style>
      .cls-1 {
        fill: #222221;
        stroke: #222221;
        stroke-width: .06px;
      }

      .cls-1, .cls-2 {
        stroke-miterlimit: 10;
      }

      .cls-2 {
        fill: #ececec;
        stroke: #f6f6f6;
        stroke-width: .03px;
      }
    </style>
  </defs>
  <circle class="cls-2" cx="8.05" cy="8.08" r="8"/>
  <path class="cls-1" d="M16,5.36c0-.29-.11-.52-.15-.62-.03-.06-.07-.14-.14-.21-.07-.06-.15-.09-.22-.12-.38-.12-.75-.06-.75-.06-.27.04-.46.13-.62.21-.35.17-.59.36-.75.5-.47.41-.76.8-1.31,1.53-.32.43-.48.65-.63.88,0,0-.09.16-.49.69-.02.02-.08.11-.19.18,0,0-.03.02-.06.04-.15.08-.45.02-.65-.02-.15-.03-.31-.07-.51-.16-.13-.05-.22-.11-.3-.15-.14-.08-.22-.12-.31-.19-.14-.11-.33-.26-.32-.38,0-.25.69-.41,1.83-.79,0,0,.52-.23.84-.54.04-.04.15-.15.27-.31.08-.1.13-.16.18-.26.07-.14.11-.27.12-.34.03-.13.04-.22.04-.26,0-.12-.01-.17-.02-.19-.01-.04-.03-.11-.08-.17-.05-.06-.12-.09-.15-.1-.08-.03-.15-.03-.19-.03-.03,0-.07,0-.12-.02-.03-.01-.06-.02-.08-.05-.05-.07,0-.18.05-.24.06-.09.14-.1.14-.11,0-.04-.36,0-.81.11-.26.06-.42.1-.63.18-.45.18-.74.41-.81.47-.06.05-.36.3-.61.69-.16.25-.31.54-.31.54-.07.14-.07.16-.12.22-.12.19-.21.21-.46.44-.12.11-.46.43-.51.57,0,.01-.02.07-.07.09-.03.01-.06,0-.07,0-.63.04-.94.06-1.01.08-.02,0-.1.03-.11,0,0-.01.02-.04.03-.05.08-.08.12-.2.2-.35.07-.13.14-.22.27-.41.14-.19.26-.34.35-.44.17-.19.28-.31.45-.45.11-.09.24-.17.51-.33,0,0,.1-.06.34-.18.12-.06.17-.08.24-.09.05,0,.1-.01.15-.02.07,0,.1,0,.12-.03.04-.04.03-.11.03-.13,0-.02,0-.03-.02-.05-.04-.05-.13-.03-.15-.02-.15.03-.11-.07-1.31,0-.64.04-1.11.12-1.22.14-.5.09-.87.2-.98.23-.22.07-.57.17-1,.37-.24.11-.51.24-.84.46-.31.21-.56.39-.78.72-.18.27-.26.52-.3.63-.04.14-.1.32-.1.55,0,.15,0,.32.08.51.1.24.27.37.33.42.06.05.3.23.62.23.1,0,.05-.01.37-.05.14-.02.23-.03.33-.09.05-.04.13-.1.12-.13-.01-.03-.08,0-.18-.01-.06,0-.23,0-.39-.1-.02-.01-.11-.07-.18-.17-.09-.12-.11-.25-.13-.33-.01-.07-.02-.19,0-.32.04-.21.13-.35.19-.44.12-.17.24-.27.41-.4.14-.1.3-.21.59-.36.12-.06.3-.15,1.26-.52.33-.13.46-.17.5-.12.05.06-.03.22-.25.58-.34.54-.63.96-.72,1.08-.39.56-.58.83-.63.9-.17.22-.41.52-.76.86-.67.65-1.15.86-1.29.91-.22.09-.35.11-.54.13-.08.01-.31.04-.54-.05-.07-.03-.13-.06-.14-.12,0-.03,0-.07.04-.13.07-.12.16-.15.23-.21.13-.1.24-.3.21-.48-.03-.15-.17-.24-.18-.24-.08-.05-.15-.05-.26-.05-.13,0-.31,0-.5.1-.18.1-.27.24-.31.31-.04.07-.14.23-.14.45,0,.08,0,.23.08.38.13.21.36.26.6.32.07.02.27.06.62.05.46,0,.81-.11.96-.15.39-.12.65-.28.87-.41.32-.19.77-.46,1.17-.95.21-.25.9-1.14.94-1.26,0,0,.02-.05.05-.07.03-.01.07,0,.08,0,.13.04.67.02.96-.03.03,0,.12-.02.13,0,0,.02-.04.06-.05.07-.1.08-.49.5-.62.88-.06.17-.13.55-.1.77,0,.03.03.15-.04.22-.03.03-.05.03-.09.05-.06.03-.09.1-.12.17-.01.03-.09.21,0,.38.04.09.11.14.15.17.07.05.14.07.27.11.15.04.22.06.28.05.05,0,.1-.02.15,0,.03.02.04.04.05.06-.02.23-.02.24-.02.24,0,.08-.01.23.06.4.02.03.07.15.19.27.13.13.27.17.35.2.15.05.28.05.38.05.19,0,.33-.03.38-.05.11-.03.18-.06.32-.12.09-.04.21-.09.34-.17.11-.07.27-.17.25-.23-.01-.03-.08-.06-.13-.06-.02,0-.04,0-.05.01-.12.05-.42.2-.62.27-.03.01-.18.06-.38.06-.09,0-.18,0-.28-.05-.04-.02-.14-.06-.21-.17-.04-.07-.06-.14-.09-.28-.03-.17-.02-.23,0-.26,0-.02.03-.06.07-.09.09-.07.2-.02.34,0,.24.03.45-.03.6-.07.06-.02.15-.05.3-.08.07-.01.14-.03.21-.03.19,0,.33.06.39.09.31.14.68.16.85.18.39.03.71-.05.87-.09.27-.07.47-.17.55-.21.4-.2.65-.45.76-.57.14-.15.23-.27.26-.31.07-.1.11-.17.18-.3.08-.15.03-.06.08-.17.03-.06.06-.1.04-.12,0,0-.03-.02-.07-.04-.03-.02-.04-.02-.05-.02-.02,0-.03.03-.05.06-.02.03-.04.06-.06.09-.02.04-.25.36-.77.72-.25.17-.48.33-.83.45-.29.1-.52.13-.63.13-.26.02-.42,0-.6-.03-.22-.04-.26-.07-.26-.08,0,0,0,0,0,0-.03-.11.74-.42,1.3-.92.27-.24.38-.36.38-.36.17-.19.22-.25.34-.36.03-.03.09-.08.18-.14,0,0,.05-.03.11-.06.14-.06,2.09-.79,2.85-1.19.35-.19.85-.52,1.35-1.14.08-.1.41-.54.39-1.09ZM10.43,8.86c-.29.28-.58.44-.66.48-.37.19-.74.38-.79.32-.03-.05.16-.17.18-.43.01-.15-.03-.27-.04-.3-.05-.13-.13-.21-.17-.24-.15-.14-.32-.17-.38-.19-.31-.06-.56.06-.68.12-.23.11-.36.26-.46.37-.16.18-.49.62-.63.79,0,0-.04.04-.08.07-.08.04-.21.05-.24,0-.03-.04.01-.1.12-.32.05-.11,0,0,.14-.3.1-.21.15-.32.2-.41.09-.17.09-.14.2-.33.16-.29.24-.44.28-.51.02-.04.06-.14.15-.22.03-.03.07-.05.08-.06.06-.04.11-.05.17-.07.09-.03.07-.01.27-.05.06-.01.1-.02.14,0,.03.02.04.05.06.09.02.06.07.1.15.2.06.07.11.11.19.17.2.16.31.24.44.32.04.03.48.27.88.31.15.01.24.03.37.02.15-.02.25-.06.28-.03.02.04-.08.15-.13.19ZM15.13,5.47c-.09.18-.19.3-.36.52-.26.34-.5.57-.66.72-.35.34-.65.56-.76.65-.4.3-.73.48-.88.57-.41.22-.76.41-.84.33-.02-.03-.07-.13.74-1.14,0,0,1.02-1.27,2.32-2.13.01,0,.16-.11.38-.15.1-.02.16-.03.2,0,.13.11-.1.57-.13.62Z"/>
</svg>