<?xml version="1.0" encoding="UTF-8"?>
<svg id="Layer_2" data-name="Layer 2" xmlns="http://www.w3.org/2000/svg" viewBox="0 0 625.21 370.57">
  <defs>
    <style>
      .cls-1 {
        fill: none;
        stroke: #222221;
        stroke-miterlimit: 10;
        stroke-width: 3px;
      }
    </style>
  </defs>
  <path class="cls-1" d="M571.58,89.82c-.28-9.77-3.8-17.66-5.26-21.01-.95-2.18-2.25-4.73-4.82-7.01-2.48-2.2-5.09-3.22-7.45-3.94-13.01-3.98-25.56-2.11-25.56-2.11-9.22,1.37-15.71,4.43-21.19,7.06-11.82,5.68-20.09,12.33-25.43,16.96-16.09,13.94-26,27.18-44.43,52.11-10.92,14.77-16.31,22.2-21.47,29.94,0,0-3.05,5.37-16.55,23.47-.63.85-2.8,3.7-6.42,6.13-.04.03-1.14.75-2.1,1.24-5.23,2.66-15.45.78-22.15-.81-4.98-1.19-10.48-2.53-17.32-5.53-4.26-1.87-7.62-3.75-10.17-5.19-4.65-2.61-7.46-4.19-10.38-6.49-4.85-3.82-11.07-8.71-10.9-12.97.33-8.33,23.63-13.86,62.3-26.74,0,0,17.65-7.73,28.5-18.39,1.23-1.21,5.08-5.11,9.34-10.64,2.67-3.47,4.27-5.55,5.97-8.82,2.53-4.87,3.57-9.03,4.15-11.41,1.07-4.41,1.25-7.52,1.3-8.82.14-3.94-.37-5.93-.52-6.49-.41-1.52-1.02-3.66-2.85-5.71-1.86-2.08-4.02-2.98-5.19-3.37-2.76-.85-4.95-1.04-6.49-1.04-1.11,0-2.47.09-4.15-.52-.99-.36-1.98-.71-2.59-1.56-1.63-2.25.03-6,1.56-8.04,2.17-2.91,4.81-3.32,4.67-3.89-.29-1.21-12.32.02-27.5,3.63-8.97,2.13-14.2,3.38-21.27,6.23-15.15,6.11-25.07,14.08-27.5,16.08-2.09,1.72-12.34,10.31-20.75,23.35-5.45,8.45-10.58,18.42-10.58,18.42-2.5,4.85-2.54,5.37-3.93,7.54-4.22,6.59-7.17,7.03-15.59,14.85-4,3.71-15.66,14.53-17.23,19.31-.14.43-.68,2.27-2.23,2.97-1.03.46-2.06.13-2.38.15-21.28,1.36-31.91,2.04-34.31,2.67-.8.21-3.39.94-3.71.3-.23-.45.78-1.39,1.04-1.63,2.73-2.59,4.05-6.74,6.83-12.03,2.35-4.48,4.64-7.64,9.21-13.96,4.68-6.47,8.97-11.55,12.03-15,5.67-6.38,9.36-10.54,15.3-15.3,3.75-3,8.24-5.77,17.23-11.29,0,0,3.34-2.05,11.58-6.24,4.14-2.1,5.91-2.86,8.32-3.12,1.73-.18,3.46-.44,5.2-.59,2.52-.22,3.3-.19,4.01-.89,1.38-1.35.96-3.9.89-4.31-.09-.53-.18-1.13-.59-1.63-1.26-1.54-4.43-.88-5.11-.76-5.17.96-3.85-2.41-44.59,0-21.74,1.29-37.79,4.13-41.53,4.81-17.09,3.1-29.66,6.8-33.23,7.87-7.46,2.24-19.33,5.85-34.1,12.68-8.03,3.71-17.32,8.06-28.42,15.74-10.45,7.24-19.08,13.21-26.67,24.48-6.09,9.05-8.83,17.53-10.06,21.42-1.53,4.85-3.34,10.78-3.5,18.8-.1,5.1-.21,10.81,2.62,17.49,3.45,8.15,9.13,12.69,11.37,14.43,2.12,1.65,10.11,7.67,20.98,7.87,3.25.06,1.59-.41,12.68-1.75,4.78-.58,7.94-.86,11.37-3.06,1.86-1.19,4.38-3.32,3.93-4.37-.37-.89-2.56-.33-6.12-.44-2.03-.06-7.86-.3-13.12-3.5-.71-.43-3.58-2.24-6.12-5.68-3.11-4.21-3.86-8.37-4.37-11.37-.43-2.51-.78-6.37,0-10.93,1.2-7.04,4.43-11.8,6.56-14.86,4.09-5.89,8.33-9.21,13.99-13.55,4.65-3.57,10.17-7.08,20.11-12.24,3.92-2.03,10.32-5.24,42.9-17.78,11.33-4.36,15.56-5.9,17.16-4.07,1.84,2.1-.87,7.42-8.47,19.67-11.48,18.52-21.57,32.53-24.48,36.72-13.14,18.93-19.72,28.39-21.42,30.6-5.81,7.54-13.81,17.65-25.79,29.29-22.91,22.25-39.17,29.22-43.72,31.04-7.44,2.98-11.9,3.58-18.48,4.46-2.56.34-10.67,1.32-18.25-1.71-2.4-.96-4.39-2.16-4.81-4.07-.25-1.15.04-2.41,1.31-4.37,2.54-3.93,5.44-5.21,7.87-7.21,4.27-3.52,8.3-10.25,6.99-16.4-1.11-5.23-5.67-8.04-6.12-8.31-2.72-1.63-5.25-1.69-8.74-1.75-4.48-.07-10.43-.17-16.83,3.43-6.05,3.4-9.11,8.19-10.61,10.61-1.47,2.37-4.7,7.72-4.87,15.28-.06,2.73-.17,7.93,2.82,12.78,4.3,6.98,12.35,8.9,20.31,10.8,2.54.6,9.31,1.97,20.98,1.75,15.62-.3,27.7-3.67,32.79-5.25,13.1-4.06,22.02-9.36,29.73-13.99,11-6.61,26.05-15.67,39.88-32.15,7.09-8.44,30.54-38.72,32.07-42.9.1-.28.57-1.7,1.81-2.27,1.1-.51,2.28-.11,2.62,0,4.38,1.36,22.91.82,32.61-1.01,1.13-.21,4.07-.8,4.43,0,.29.65-1.23,1.9-1.61,2.21-3.41,2.89-16.69,17.09-21.01,29.97-1.95,5.83-4.58,18.85-3.34,26.11.18,1.03.97,5.11-1.22,7.33-.89.91-1.55,1.02-3.02,1.81-2.16,1.16-3.06,3.31-4.03,5.64-.47,1.12-2.97,7.12,0,13.08,1.51,3.04,3.78,4.73,5.03,5.64,2.33,1.69,4.64,2.33,9.26,3.62,4.99,1.4,7.49,2.09,9.46,1.81,1.61-.23,3.5-.82,5.23.2.95.56,1.5,1.4,1.81,2.01-.78,7.78-.81,8.25-.81,8.25-.12,2.56-.4,7.9,2.1,13.65.51,1.18,2.39,5.26,6.54,9.15,4.56,4.28,9.31,5.9,12.03,6.8,5.24,1.73,9.53,1.8,12.81,1.83,6.46.06,11.31-1.16,12.81-1.57,3.78-1.02,6.23-2.11,10.72-4.18,3.04-1.2,7.08-3.03,11.55-5.79,3.71-2.29,9.2-5.68,8.57-7.82-.35-1.18-2.61-2.05-4.38-1.98-.84.03-1.46.27-1.66.35-4.06,1.58-14.4,6.89-21.06,9.07-1.11.36-6.24,2-12.98,1.95-3.09-.02-6.02-.08-9.41-1.62-1.26-.57-4.65-2.17-7.14-5.84-1.53-2.25-1.99-4.64-2.92-9.41-1.11-5.71-.52-7.71,0-8.89.27-.61.92-2.08,2.27-3.12,2.94-2.27,6.75-.67,11.68,0,8.12,1.1,15.31-.87,20.45-2.27,2.01-.55,5.2-1.54,10.19-2.6,2.31-.49,4.64-.88,7.01-.97,6.34-.25,11.24,2.04,13.33,2.95,10.62,4.61,23.12,5.6,28.82,6.05,13.32,1.06,23.99-1.68,29.58-3.16,9.23-2.45,15.95-5.68,18.83-7.14,13.55-6.89,21.94-15.35,25.97-19.47,4.83-4.95,7.8-9.03,8.76-10.39,2.36-3.32,3.84-5.93,6.17-10.06,2.83-5.01.85-2.19,2.81-5.76,1.1-2,1.94-3.29,1.41-4.22-.16-.29-.95-.66-2.53-1.41-1.18-.56-1.41-.61-1.69-.56-.77.14-1.13.94-1.83,2.11-.64,1.07-1.47,2.02-2.11,3.09-.79,1.35-8.39,12.12-26.29,24.58-8.5,5.91-16.26,11.32-28.23,15.43-9.86,3.39-17.84,4.26-21.55,4.55-8.71.68-14.45-.23-20.44-1.19-7.63-1.22-8.77-2.29-8.98-2.86,0,0-.02-.07-.04-.15-.94-3.87,25.12-14.16,44.21-31.33,9.05-8.15,12.76-12.34,12.76-12.34,5.7-6.44,7.64-8.39,11.52-12.29.85-.86,2.96-2.82,6.06-4.88,0,0,1.75-1.13,3.69-2.01,4.7-2.14,70.94-26.75,96.84-40.58,11.89-6.35,28.74-17.62,45.82-38.6,2.56-3.3,13.87-18.44,13.34-36.96ZM382.16,208.9c-9.76,9.63-19.87,14.94-22.4,16.25-12.57,6.49-25.28,13.05-26.86,10.78-1.16-1.66,5.53-5.62,6.27-14.54.43-5.2-1.05-9.12-1.42-10.03-1.75-4.4-4.5-7-5.78-8.17-5.07-4.68-10.74-5.91-13.07-6.39-10.42-2.13-19.06,1.98-23.13,4-7.76,3.84-12.4,8.87-15.71,12.56-5.6,6.26-16.58,21.09-21.42,26.84-.28.34-1.24,1.45-2.86,2.28-2.79,1.44-7.04,1.77-8.28,0-.99-1.42.49-3.45,4.15-10.98,1.86-3.83-.28.31,4.6-10.04,3.44-7.3,5.17-10.95,6.69-13.81,3.07-5.73,3.03-4.75,6.69-11.3,5.54-9.91,8.31-14.86,9.41-17.36.53-1.22,2.01-4.66,5.23-7.32,1.18-.98,2.44-1.72,2.72-1.88,2.08-1.21,3.79-1.74,5.65-2.3,3.04-.92,2.53-.39,9.21-1.67,2.2-.42,3.43-.71,4.6,0,1.09.66,1.37,1.74,1.88,2.93.83,1.96,2.23,3.57,5.01,6.78,2.01,2.32,3.88,3.88,6.3,5.77,6.96,5.46,10.42,8.22,15.06,10.88,1.49.85,16.45,9.29,29.78,10.51,5.24.48,8.32,1.09,12.69.58,5.21-.6,8.64-2.08,9.35-.95.82,1.31-2.72,4.93-4.39,6.59ZM541.84,93.54c-3.02,6.07-6.57,10.33-12.34,17.76-8.92,11.49-16.97,19.32-22.47,24.64-11.85,11.46-21.97,19.19-25.95,22.15-13.64,10.17-24.77,16.46-30.06,19.3-13.78,7.42-25.91,13.96-28.48,11.08-.77-.86-2.42-4.52,25.2-38.79,0,0,34.71-43.05,78.91-72.28.35-.23,5.52-3.58,12.97-5.06,3.52-.7,5.38-1.05,6.65,0,4.34,3.6-3.56,19.45-4.43,21.2Z"/>
</svg>